<svg version="1.0" xmlns="http://www.w3.org/2000/svg" width="800.000000" height="800.000000" viewBox="0 0 800.000000 800.000000" preserveAspectRatio="xMidYMid meet">
  <metadata>
    <rdf:RDF xmlns:rdf="http://www.w3.org/1999/02/22-rdf-syntax-ns#" xmlns:rdfs="http://www.w3.org/2000/01/rdf-schema#" xmlns:dc="http://purl.org/dc/elements/1.1/">
      <rdf:Description dc:format="image/svg+xml" dc:Label="1" dc:ContentProducer="001191330110MACRLGPT8B00000" dc:ProduceID="446045539" dc:ReservedCode1="nwTtLuJWNkxprOP7qCFkBPk+GR6QRNf0adFOK+JFKcI=" dc:ContentPropagator="001191330110MACRLGPT8B00000" dc:PropagateID="446045539" dc:ReservedCode2="nwTtLuJWNkxprOP7qCFkBPk+GR6QRNf0adFOK+JFKcI="/>
    </rdf:RDF>
  </metadata>
  <g transform="translate(0.000000,800.000000) scale(0.100000,-0.100000)" fill="#000000" stroke="none">
    <path d="M2035 6369 c10 -93 48 -235 89 -334 82 -202 252 -412 457 -566 28 -22 53 -38 55 -36 11 11 -95 243 -177 385 -103 181 -297 461 -402 581 l-29 34 7 -64z"/>
    <path d="M4335 6190 c-214 -5 -507 -13 -650 -20 -224 -9 -262 -13 -277 -28 -24 -25 -265 -406 -410 -647 -692 -1157 -1096 -2095 -1302 -3016 -43 -194 -87 -444 -102 -575 -6 -58 -5 -62 21 -82 14 -11 32 -19 38 -17 7 2 55 13 107 25 52 11 103 23 113 26 17 5 18 -3 11 -147 -6 -135 -5 -153 9 -164 13 -10 44 -7 149 12 294 52 819 121 1193 157 484 46 712 58 1304 65 460 5 535 8 542 21 4 8 12 103 18 210 17 310 80 765 147 1070 217 982 630 2010 1079 2685 51 77 105 157 120 177 45 61 39 64 -156 72 -96 4 -175 9 -177 11 -2 2 10 29 27 59 34 59 32 86 -6 100 -28 11 -1365 15 -1798 6z m1765 -60 c0 -6 -26 -50 -58 -98 -750 -1117 -1289 -2528 -1420 -3717 l-18 -160 -259 -7 c-558 -15 -964 -39 -1375 -83 -388 -41 -1001 -133 -1208 -181 -62 -15 -114 -25 -117 -22 -2 2 7 78 20 168 176 1175 723 2443 1720 3987 l59 91 175 7 c417 18 698 22 1564 23 628 1 917 -1 917 -8z m125 -220 c23 -9 25 -13 15 -25 -14 -17 -85 -21 -95 -5 -3 5 -13 6 -23 3 -15 -6 -15 -4 -4 10 8 9 28 18 45 20 18 2 33 5 34 5 1 1 14 -3 28 -8z m-85 -130 c0 -5 -7 -10 -15 -10 -8 0 -15 5 -15 10 0 6 7 10 15 10 8 0 15 -4 15 -10z"/>
    <path d="M5468 6069 c-43 -24 -5 -55 58 -47 32 3 46 34 22 49 -18 12 -59 11 -80 -2z"/>
    <path d="M5740 6013 c-41 -16 -31 -50 17 -59 66 -12 114 35 57 56 -28 11 -51 12 -74 3z"/>
    <path d="M4277 5963 c-8 -10 -36 -57 -60 -104 -44 -84 -45 -85 -70 -73 -46 25 -100 28 -124 7 -20 -17 -21 -22 -12 -68 6 -27 12 -86 12 -130 2 -91 16 -122 70 -156 67 -43 213 0 277 81 15 19 42 64 59 99 26 55 29 67 18 80 -8 9 -21 44 -31 79 -9 35 -32 95 -51 133 -37 73 -58 85 -88 52z m28 -130 c-3 -27 -8 -61 -11 -78 l-5 -30 29 33 c17 19 32 30 35 25 15 -27 16 -66 2 -93 l-15 -30 30 6 30 6 -16 -45 c-31 -91 -125 -167 -208 -167 -28 0 -45 7 -67 29 -16 16 -29 35 -29 43 0 7 12 -2 26 -19 19 -25 33 -33 57 -33 l32 1 -30 16 c-34 18 -90 62 -81 64 3 1 12 2 19 3 15 2 14 13 -9 98 -10 37 -16 69 -13 72 3 3 29 -4 58 -15 30 -11 55 -19 56 -17 1 2 13 23 25 48 39 78 72 130 82 130 5 0 7 -19 3 -47z"/>
    <path d="M4121 5652 c6 -17 16 -36 23 -42 22 -17 7 36 -15 56 -18 17 -19 16 -8 -14z"/>
    <path d="M5582 5898 c-30 -30 3 -53 64 -46 32 3 46 34 22 49 -19 13 -72 11 -86 -3z"/>
    <path d="M3639 5103 c-212 -219 -360 -385 -498 -562 -136 -174 -371 -501 -371 -517 0 -31 32 -47 84 -40 28 3 153 9 278 13 194 5 230 9 243 23 8 9 50 74 93 146 l78 129 229 -3 c127 -2 233 -7 237 -10 4 -4 12 -67 19 -140 7 -78 17 -139 25 -146 9 -9 82 -15 246 -21 352 -13 330 -14 344 13 8 15 9 36 3 60 -5 20 -36 197 -69 392 -51 297 -136 726 -156 792 -3 10 -15 20 -27 23 -22 5 -491 35 -545 35 -26 0 -57 -27 -213 -187z m507 -92 c67 -41 53 -96 -69 -279 -85 -126 -112 -182 -87 -182 27 0 139 78 212 148 81 78 109 86 124 39 6 -18 -5 -33 -61 -84 -172 -160 -330 -216 -358 -128 -13 40 -11 39 -46 21 -16 -9 -55 -23 -86 -31 -50 -12 -62 -13 -91 0 -31 13 -34 18 -34 55 0 57 53 189 104 257 121 164 293 244 392 184z m-1017 -617 c-7 -16 -22 -67 -35 -114 -12 -47 -23 -75 -23 -63 -1 12 -6 25 -12 29 -8 4 -10 -8 -8 -40 3 -34 1 -46 -9 -46 -8 0 -12 -5 -10 -12 2 -6 51 -22 109 -35 57 -14 108 -28 112 -32 4 -4 -72 -11 -169 -15 -114 -4 -181 -3 -187 3 -7 7 -1 23 16 48 27 39 97 138 176 251 46 65 60 74 40 26z m1055 -190 c17 -12 16 -13 -10 -16 -26 -3 -23 -7 41 -39 39 -20 121 -53 183 -74 62 -20 112 -38 110 -39 -7 -5 -374 17 -379 23 -4 3 -10 49 -14 100 l-7 95 28 -19 c16 -10 37 -24 48 -31z"/>
    <path d="M3965 4923 c-73 -38 -147 -119 -194 -214 -48 -95 -54 -134 -18 -123 39 12 139 55 162 70 42 28 190 257 181 280 -9 22 -76 16 -131 -13z"/>
    <path d="M2764 3605 c-18 -46 -48 -45 828 -38 536 4 825 10 830 16 24 37 22 37 -828 37 -724 0 -825 -2 -830 -15z"/>
    <path d="M3290 3199 c-610 -12 -574 -10 -578 -35 -2 -12 3 -24 10 -26 14 -6 849 7 1288 20 246 7 255 8 255 27 0 20 -7 20 -285 21 -157 1 -467 -3 -690 -7z"/>
    <path d="M2022 3060 c-79 -248 -167 -606 -208 -855 -24 -141 -26 -166 -14 -180 16 -20 7 -20 260 23 217 38 535 84 785 113 105 12 194 25 199 30 4 4 -11 10 -35 13 -24 3 -87 10 -139 16 -144 17 -282 48 -415 91 -118 39 -159 59 -120 59 11 0 37 5 59 11 l38 11 -96 53 c-88 48 -206 130 -206 142 0 3 34 2 75 -2 49 -4 75 -3 75 4 0 5 -4 12 -9 15 -19 12 -104 171 -138 259 -19 51 -45 137 -58 192 l-22 100 -31 -95z"/>
    <path d="M2764 6015 c-5 -22 -9 -140 -9 -263 l0 -223 47 -45 c26 -24 52 -44 57 -44 6 0 24 24 41 53 33 57 33 62 -1 198 -25 100 -71 240 -102 309 l-24 55 -9 -40z"/>
    <path d="M1742 5439 c5 -16 120 -98 197 -139 30 -17 90 -44 135 -61 l81 -31 80 16 c142 30 307 78 297 88 -16 16 -238 87 -343 109 -132 27 -454 40 -447 18z"/>
    <path d="M2410 5036 c-110 -41 -420 -233 -420 -260 0 -21 287 29 413 72 65 22 82 32 94 57 14 27 43 118 43 138 0 12 -92 7 -130 -7z"/>
  </g>
</svg>